Coordinates
version=1
nRows=14
nColumns=36
inDegrees=yes

Units are S.I. units (second, meters, Newtons, ...)
If the header above contains a line with 'inDegrees', this indicates whether rotational values are in degrees (yes) or radians (no).

endheader
time	pelvis_tilt	pelvis_list	pelvis_rotation	pelvis_tx	pelvis_ty	pelvis_tz	hip_flexion_r	hip_adduction_r	hip_rotation_r	knee_angle_r	knee_angle_r_beta	ankle_angle_r	subtalar_angle_r	mtp_angle_r	hip_flexion_l	hip_adduction_l	hip_rotation_l	knee_angle_l	knee_angle_l_beta	ankle_angle_l	subtalar_angle_l	mtp_angle_l	lumbar_extension	lumbar_bending	lumbar_rotation	arm_flex_r	arm_add_r	arm_rot_r	elbow_flex_r	pro_sup_r	arm_flex_l	arm_add_l	arm_rot_l	elbow_flex_l	pro_sup_l
      0.00000000	      2.93813622	      0.07589785	     -3.63962120	      0.62528551	      0.91073875	      0.75779255	    -12.52903215	     -1.20330552	      2.96775530	     31.02031475	      0.54140663	     -2.84171372	    -10.48195758	     -7.03429015	     23.06755733	     -0.95328233	     -0.21410973	     21.45066440	      0.37438472	      2.62745178	     -6.56439986	     -7.03429015	    -10.34248307	     -2.05293364	     10.18643827	     11.49215780	    -15.91060596	     -1.05404567	     44.26252527	     88.12559458	     -1.00588223	     -8.57191966	     -2.29448460	     12.11112638	     83.48847152
      0.01666670	      3.23985245	      0.71463012	     -3.91356861	      0.63014135	      0.91241449	      0.75205035	    -10.36030157	     -2.45885947	      2.13909229	     36.52283774	      0.63744377	     -4.48612140	    -10.49155546	     -7.12566526	     21.97173149	      0.09142866	     -0.42019086	     22.63896726	      0.39512452	      2.36030501	     -8.28415931	     -7.12566526	    -10.84612851	     -3.13675771	     10.36150591	      9.47978193	    -15.36057044	     -4.51214690	     48.23473980	     88.00665293	     -0.42035789	     -8.70930279	     -0.04704180	     11.52719822	     88.31722659
      0.03333330	      3.87997296	      2.11571087	     -4.44176799	      0.63749896	      0.91481370	      0.74596290	     -8.41225669	     -4.56198044	      1.60778290	     42.14975189	      0.73565195	     -8.70282391	    -11.70138334	     -7.13344677	     19.77807514	      1.99205681	     -0.81432012	     22.26340975	      0.38856980	      2.33165238	     -8.93147397	     -7.13344677	    -10.98027086	     -4.53898679	      9.36048957	      9.27364741	    -14.46175471	     -4.27299248	     47.61036795	     88.02338367	     -0.35926619	     -8.74962516	      0.37528471	     11.14888226	     88.60136917
      0.05000000	      3.96750242	      3.12949433	     -5.37351588	      0.64516714	      0.91309837	      0.74170023	     -5.79376562	     -6.31197273	      1.55506877	     47.71269124	      0.83274356	    -14.05395906	    -13.20776118	     -7.14992810	     18.07506530	      3.24257244	     -1.19851073	     22.05426864	      0.38491960	      3.00670035	     -9.95508720	     -7.14992810	    -10.17165702	     -5.49762601	      8.84064590	      8.90237257	    -13.68418251	     -3.98461051	     44.94611737	     88.23378753	     -0.42989362	     -9.02852259	      1.56878679	     11.21449445	     89.32451555
      0.06666670	      4.06890257	      3.76381987	     -6.18778164	      0.64865218	      0.91328177	      0.74039604	     -3.13501295	     -7.41983707	      1.65347918	     52.85150282	      0.92243274	    -18.82857989	    -14.02639780	     -7.17497616	     16.31149360	      4.13844492	     -1.49374510	     21.85710506	      0.38147845	      4.31984576	    -10.09876045	     -7.17497616	     -9.57609926	     -6.10115071	      8.37959016	      8.24686041	    -12.95364695	     -3.80136527	     42.33061089	     88.73875732	     -0.27851727	     -9.36881879	      3.18344920	     11.64007750	     90.26546760
      0.08333330	      4.20945180	      4.22631725	     -6.84287446	      0.64884743	      0.91637818	      0.74099083	     -0.50759933	     -8.05792796	      2.04912035	     57.12910053	      0.99709090	    -21.92293557	    -14.50720531	     -7.18496312	     14.38372956	      4.86519087	     -1.68702565	     21.29884270	      0.37173493	      5.11095538	    -10.35106521	     -7.18496312	     -9.39037019	     -6.56752685	      8.25193732	      7.02028109	    -12.42047398	     -3.97714169	     40.59433625	     88.76991890	      0.26840829	     -9.53176509	      3.62013182	     12.31195976	     90.35217150
      0.10000000	      4.04118894	      4.40602411	     -7.29292859	      0.64876194	      0.91842353	      0.74110734	      2.29770401	     -8.02991937	      2.58689027	     60.43959004	      1.05486984	    -22.96576607	    -14.83644428	     -7.19962553	     12.77500362	      5.28887784	     -1.79762503	     20.62901723	      0.36004427	      5.88617723	    -10.47083786	     -7.19962553	     -8.86209268	     -6.69373911	      8.09733213	      6.02751630	    -11.73417661	     -4.70652256	     37.66579287	     88.87229194	      1.01461280	     -9.54725668	      4.68082218	     12.90434275	     90.61681823
      0.11666670	      4.29665954	      4.42319886	     -7.71985058	      0.64871074	      0.91886535	      0.74081255	      4.37023319	     -7.63979371	      3.08817029	     62.69158190	      1.09417452	    -21.88214110	    -15.79723197	     -7.20748937	     10.53746633	      5.62595633	     -1.86540168	     19.56474119	      0.34146915	      6.30161654	    -10.72301888	     -7.20748937	     -9.15681742	     -6.73456076	      7.51677862	      4.88047722	    -11.18244388	     -4.94680771	     35.85394882	     87.95896391	      1.59406825	     -9.54885602	      5.08615407	     14.85931450	     89.56260440
      0.13333330	      4.64811156	      4.01179836	     -8.20809116	      0.64740661	      0.92115782	      0.74074948	      6.20548036	     -6.65358945	      3.51673460	     64.06991470	      1.11823096	    -18.23592112	    -16.24102670	     -7.22075349	      8.12207317	      5.52156862	     -1.87111372	     18.46463507	      0.32226868	      6.83456725	    -10.80795601	     -7.22075349	     -9.52934719	     -6.25903497	      6.93467080	      4.09880260	    -10.61066675	     -5.32233514	     33.11078806	     87.27823520	      2.75037687	     -9.30813886	      5.64257143	     16.10033383	     88.80366453
      0.15000000	      4.63650869	      3.43092364	     -8.73851299	      0.64571231	      0.92473308	      0.74062979	      8.50324877	     -5.36244053	      3.82976437	     64.56037608	      1.12679113	    -12.71605919	    -16.32075558	     -7.24071503	      5.97664343	      5.10851142	     -2.14469841	     17.24601286	      0.30099971	      7.44790759	    -10.40045064	     -7.24071503	     -9.34576169	     -5.50642087	      6.33505786	      3.58493851	     -9.97727936	     -5.76868295	     29.75352524	     86.96206047	      4.17754438	     -9.15222126	      6.88441377	     16.51752107	     88.25159237
      0.16666670	      4.95176847	      2.81648493	     -9.06666085	      0.64331600	      0.93002035	      0.73927726	     10.59017031	     -4.08656994	      3.94866334	     63.94148435	      1.11598943	     -7.13430434	    -16.76650047	     -7.25152810	      3.38596791	      4.74005580	     -2.07829095	     15.85924285	      0.27679600	      8.04014656	     -9.96172950	     -7.25152810	    -10.00023223	     -4.76603624	      5.83178040	      2.77176220	     -9.63113743	     -6.14157180	     27.88714432	     86.48431916	      5.66814492	     -9.13011894	      7.13351815	     18.10442548	     87.58557872
      0.18333330	      4.85563760	      2.37489400	     -9.26290681	      0.64158298	      0.93383817	      0.73786772	     13.26050634	     -3.01940632	      3.97729763	     62.25316992	      1.08652278	     -1.91035344	    -16.66667550	     -7.25962292	      1.26538767	      4.45376326	     -2.19883600	     14.51113231	      0.25326704	      8.83020135	     -8.97863476	     -7.25962292	    -10.04360034	     -4.11801948	      5.06982314	      2.35375754	     -9.11507962	     -6.70921859	     25.15515489	     87.07403419	      7.22496197	     -9.32821500	      7.82735263	     18.62760613	     87.85831787
      0.20000000	      4.87293036	      1.88799918	     -9.25034308	      0.64074840	      0.93567502	      0.73752644	     15.50139038	     -2.07388882	      3.78248232	     59.31554519	      1.03525156	      1.82385668	    -16.38830341	     -7.26659206	     -0.96612715	      4.17375890	     -2.02485076	     13.18295010	      0.23008588	      9.51507145	     -8.39906877	     -7.26659206	    -10.38974363	     -3.41829333	      4.35171403	      1.69401851	     -8.81759688	     -7.02479744	     23.03274166	     87.15027374	      8.83739876	     -9.58858726	      7.96319811	     19.42823372	     87.69766657
      0.21666670	      4.82479496	      1.39255445	     -9.11323066	      0.63963936	      0.93699489	      0.73848494	     17.31569654	     -1.23123353	      3.41655784	     55.47297459	      0.96818605	      3.87462281	    -16.08419693	     -7.27768389	     -3.02831892	      3.84467136	     -1.91568007	     12.02835980	      0.20993448	     10.15058486	     -7.80679408	     -7.27768389	    -10.56017492	     -2.67099383	      3.25223546	      1.38098171	     -8.47399429	     -7.46886156	     20.37210236	     87.65889017	     10.26582689	    -10.10228542	      8.18559786	     20.31811201	     87.71397141
